# xmcd
#
# Track frame offsets:
#	150
#	15434
#	31777
#	46572
#	60444
#	74679
#	87905
#	102699
#	117846
#	131983
#	146277
#	162179
#	174630
#	188258
#
# Disc length: 2731
#
# Revision: 2
# Processed by: cddbd v1.5.1PL0 Copyright (c) Steve Scherf et al.
# Submitted via: audiograbber 1.83.01
# Normalized: r1:DSETVAR1
#
DISCID=b10aa90e
DTITLE=Various Artist - Goldene Volksmusikparade 2003_3
DYEAR=2003
DGENRE=Volksmusik
TTITLE0=Kastelruther Spatzen - Herzen an die Macht
TTITLE1=Monika Martin - Fremder Mann
TTITLE2=Die Paldauer - Sag niemals nie
TTITLE3=Oswald Sattler - Die weißen Sterne der Berge
TTITLE4=Jazz Gitti - Es geht immer bergauf
TTITLE5=Mara Kayser - Du bist
TTITLE6=Eberhard Hertel - So schön ist unsere Welt
TTITLE7=Francine Jordi - Zirkus des Lebens
TTITLE8=Nockalm Qunitett - Stern an Stern
TTITLE9=Edward Simoni - Wie ein Flügelschlag
TTITLE10=Andy Borg - Herzklopfzeichen
TTITLE11=Alpentrio Tirol - Das Glück hat einen Namen
TTITLE12=Oliver Haidt - So ein süßes Lächeln
TTITLE13=Die Edlseer - Hotel Mama
EXTD=
EXTT0=
EXTT1=
EXTT2=
EXTT3=
EXTT4=
EXTT5=
EXTT6=
EXTT7=
EXTT8=
EXTT9=
EXTT10=
EXTT11=
EXTT12=
EXTT13=
PLAYORDER=
